<mxfile host="Electron" modified="2023-11-22T19:47:02.432Z" agent="Mozilla/5.0 (Windows NT 10.0; Win64; x64) AppleWebKit/537.36 (KHTML, like Gecko) draw.io/22.0.3 Chrome/114.0.5735.289 Electron/25.8.4 Safari/537.36" etag="uyUm89sDa6_vORl60oX0" version="22.0.3" type="device">
  <diagram name="Page-1" id="tetlP-_5vaCFwDyEh7tG">
    <mxGraphModel dx="805" dy="1115" grid="1" gridSize="10" guides="1" tooltips="1" connect="1" arrows="1" fold="1" page="0" pageScale="1" pageWidth="850" pageHeight="1100" math="0" shadow="0">
      <root>
        <mxCell id="0" />
        <mxCell id="1" parent="0" />
        <mxCell id="ScC2c7ncrTBsJSaWzP-6-5" value="AED" style="swimlane;fontStyle=1;align=center;verticalAlign=top;childLayout=stackLayout;horizontal=1;startSize=26;horizontalStack=0;resizeParent=1;resizeParentMax=0;resizeLast=0;collapsible=1;marginBottom=0;" parent="1" vertex="1">
          <mxGeometry x="100" y="80" width="230" height="520" as="geometry" />
        </mxCell>
        <mxCell id="ScC2c7ncrTBsJSaWzP-6-6" value="- status: AEDStatus&#xa;- selfTestPass: bool&#xa;- steps: std::vector&lt;Step*&gt;&#xa;- currentStep: Step*&#xa;- firstStep: Step*&#xa;- lastScan: std::chrono::datetime&#xa;- scanIntervalDays: int&#xa;- defibElectrodesConnected: bool&#xa;&#xa;&#xa;" style="text;strokeColor=none;fillColor=none;align=left;verticalAlign=top;spacingLeft=4;spacingRight=4;overflow=hidden;rotatable=0;points=[[0,0.5],[1,0.5]];portConstraint=eastwest;" parent="ScC2c7ncrTBsJSaWzP-6-5" vertex="1">
          <mxGeometry y="26" width="230" height="214" as="geometry" />
        </mxCell>
        <mxCell id="ScC2c7ncrTBsJSaWzP-6-7" value="" style="line;strokeWidth=1;fillColor=none;align=left;verticalAlign=middle;spacingTop=-1;spacingLeft=3;spacingRight=3;rotatable=0;labelPosition=right;points=[];portConstraint=eastwest;strokeColor=inherit;" parent="ScC2c7ncrTBsJSaWzP-6-5" vertex="1">
          <mxGeometry y="240" width="230" height="8" as="geometry" />
        </mxCell>
        <mxCell id="ScC2c7ncrTBsJSaWzP-6-8" value="+ AED()&#xa;+ ~AED()&#xa;- checkForTest()&#xa;+ startSelfTest()&#xa;&#xa;&#xa;// steps&#xa;- checkResponsiveness()&#xa;- callForHelp()&#xa;- attachPads()&#xa;- dontTouchPatient()&#xa;- startCpr()&#xa;- stopCpr()&#xa;+ turnOff()&#xa;+ turnOn() // initiates self test" style="text;strokeColor=none;fillColor=none;align=left;verticalAlign=top;spacingLeft=4;spacingRight=4;overflow=hidden;rotatable=0;points=[[0,0.5],[1,0.5]];portConstraint=eastwest;" parent="ScC2c7ncrTBsJSaWzP-6-5" vertex="1">
          <mxGeometry y="248" width="230" height="272" as="geometry" />
        </mxCell>
        <mxCell id="ScC2c7ncrTBsJSaWzP-6-10" value="AEDStatus" style="swimlane;fontStyle=1;align=center;verticalAlign=top;childLayout=stackLayout;horizontal=1;startSize=26;horizontalStack=0;resizeParent=1;resizeParentMax=0;resizeLast=0;collapsible=1;marginBottom=0;" parent="1" vertex="1">
          <mxGeometry x="470" y="340" width="180" height="128" as="geometry" />
        </mxCell>
        <mxCell id="ScC2c7ncrTBsJSaWzP-6-11" value="CHECK_RESPONSIVENESS,&#xa;CALL_HELP,&#xa;ATTACH_PADS,&#xa;DONT_TOUCH_PATIENT,&#xa;START_CPR,&#xa;AED_OFF&#xa;" style="text;strokeColor=none;fillColor=none;align=left;verticalAlign=top;spacingLeft=4;spacingRight=4;overflow=hidden;rotatable=0;points=[[0,0.5],[1,0.5]];portConstraint=eastwest;" parent="ScC2c7ncrTBsJSaWzP-6-10" vertex="1">
          <mxGeometry y="26" width="180" height="94" as="geometry" />
        </mxCell>
        <mxCell id="ScC2c7ncrTBsJSaWzP-6-12" value="" style="line;strokeWidth=1;fillColor=none;align=left;verticalAlign=middle;spacingTop=-1;spacingLeft=3;spacingRight=3;rotatable=0;labelPosition=right;points=[];portConstraint=eastwest;strokeColor=inherit;" parent="ScC2c7ncrTBsJSaWzP-6-10" vertex="1">
          <mxGeometry y="120" width="180" height="8" as="geometry" />
        </mxCell>
        <mxCell id="ScC2c7ncrTBsJSaWzP-6-14" value="Step" style="swimlane;fontStyle=1;align=center;verticalAlign=top;childLayout=stackLayout;horizontal=1;startSize=26;horizontalStack=0;resizeParent=1;resizeParentMax=0;resizeLast=0;collapsible=1;marginBottom=0;" parent="1" vertex="1">
          <mxGeometry x="460" y="590" width="250" height="280" as="geometry" />
        </mxCell>
        <mxCell id="ScC2c7ncrTBsJSaWzP-6-15" value="- stepType: AEDStatus&#xa;- status: GeneralStatus&#xa;- prompt: std::string&#xa;- nextStep: Step*&#xa;- display: Display*&#xa;- actions: std::vector&lt;Action*&gt;&#xa;" style="text;strokeColor=none;fillColor=none;align=left;verticalAlign=top;spacingLeft=4;spacingRight=4;overflow=hidden;rotatable=0;points=[[0,0.5],[1,0.5]];portConstraint=eastwest;" parent="ScC2c7ncrTBsJSaWzP-6-14" vertex="1">
          <mxGeometry y="26" width="250" height="104" as="geometry" />
        </mxCell>
        <mxCell id="ScC2c7ncrTBsJSaWzP-6-16" value="" style="line;strokeWidth=1;fillColor=none;align=left;verticalAlign=middle;spacingTop=-1;spacingLeft=3;spacingRight=3;rotatable=0;labelPosition=right;points=[];portConstraint=eastwest;strokeColor=inherit;" parent="ScC2c7ncrTBsJSaWzP-6-14" vertex="1">
          <mxGeometry y="130" width="250" height="8" as="geometry" />
        </mxCell>
        <mxCell id="ScC2c7ncrTBsJSaWzP-6-17" value="+ Step(prompt: std::string, display: *Display)&#xa;+ ~Step()&#xa;+ on(): void&#xa;+ off(): void&#xa;+ isOn(): bool&#xa;" style="text;strokeColor=none;fillColor=none;align=left;verticalAlign=top;spacingLeft=4;spacingRight=4;overflow=hidden;rotatable=0;points=[[0,0.5],[1,0.5]];portConstraint=eastwest;" parent="ScC2c7ncrTBsJSaWzP-6-14" vertex="1">
          <mxGeometry y="138" width="250" height="142" as="geometry" />
        </mxCell>
        <mxCell id="ScC2c7ncrTBsJSaWzP-6-18" value="GeneralStatus" style="swimlane;fontStyle=1;align=center;verticalAlign=top;childLayout=stackLayout;horizontal=1;startSize=26;horizontalStack=0;resizeParent=1;resizeParentMax=0;resizeLast=0;collapsible=1;marginBottom=0;" parent="1" vertex="1">
          <mxGeometry x="800" y="760" width="110" height="58" as="geometry" />
        </mxCell>
        <mxCell id="ScC2c7ncrTBsJSaWzP-6-19" value="ON, OFF" style="text;strokeColor=none;fillColor=none;align=left;verticalAlign=top;spacingLeft=4;spacingRight=4;overflow=hidden;rotatable=0;points=[[0,0.5],[1,0.5]];portConstraint=eastwest;" parent="ScC2c7ncrTBsJSaWzP-6-18" vertex="1">
          <mxGeometry y="26" width="110" height="24" as="geometry" />
        </mxCell>
        <mxCell id="ScC2c7ncrTBsJSaWzP-6-20" value="" style="line;strokeWidth=1;fillColor=none;align=left;verticalAlign=middle;spacingTop=-1;spacingLeft=3;spacingRight=3;rotatable=0;labelPosition=right;points=[];portConstraint=eastwest;strokeColor=inherit;" parent="ScC2c7ncrTBsJSaWzP-6-18" vertex="1">
          <mxGeometry y="50" width="110" height="8" as="geometry" />
        </mxCell>
        <mxCell id="ScC2c7ncrTBsJSaWzP-6-25" value="Display" style="swimlane;fontStyle=1;align=center;verticalAlign=top;childLayout=stackLayout;horizontal=1;startSize=26;horizontalStack=0;resizeParent=1;resizeParentMax=0;resizeLast=0;collapsible=1;marginBottom=0;" parent="1" vertex="1">
          <mxGeometry x="80" y="680" width="250" height="280" as="geometry" />
        </mxCell>
        <mxCell id="ScC2c7ncrTBsJSaWzP-6-26" value="- message: std::string&#xa;" style="text;strokeColor=none;fillColor=none;align=left;verticalAlign=top;spacingLeft=4;spacingRight=4;overflow=hidden;rotatable=0;points=[[0,0.5],[1,0.5]];portConstraint=eastwest;" parent="ScC2c7ncrTBsJSaWzP-6-25" vertex="1">
          <mxGeometry y="26" width="250" height="104" as="geometry" />
        </mxCell>
        <mxCell id="ScC2c7ncrTBsJSaWzP-6-27" value="" style="line;strokeWidth=1;fillColor=none;align=left;verticalAlign=middle;spacingTop=-1;spacingLeft=3;spacingRight=3;rotatable=0;labelPosition=right;points=[];portConstraint=eastwest;strokeColor=inherit;" parent="ScC2c7ncrTBsJSaWzP-6-25" vertex="1">
          <mxGeometry y="130" width="250" height="8" as="geometry" />
        </mxCell>
        <mxCell id="ScC2c7ncrTBsJSaWzP-6-28" value="+ Display()&#xa;+ ~Display()&#xa;+Â " style="text;strokeColor=none;fillColor=none;align=left;verticalAlign=top;spacingLeft=4;spacingRight=4;overflow=hidden;rotatable=0;points=[[0,0.5],[1,0.5]];portConstraint=eastwest;" parent="ScC2c7ncrTBsJSaWzP-6-25" vertex="1">
          <mxGeometry y="138" width="250" height="142" as="geometry" />
        </mxCell>
        <mxCell id="ScC2c7ncrTBsJSaWzP-6-33" value="Action" style="swimlane;fontStyle=1;align=center;verticalAlign=top;childLayout=stackLayout;horizontal=1;startSize=26;horizontalStack=0;resizeParent=1;resizeParentMax=0;resizeLast=0;collapsible=1;marginBottom=0;" parent="1" vertex="1">
          <mxGeometry x="730" y="390" width="250" height="280" as="geometry" />
        </mxCell>
        <mxCell id="ScC2c7ncrTBsJSaWzP-6-34" value="- text: std::string&#xa;- actionType: ActionType" style="text;strokeColor=none;fillColor=none;align=left;verticalAlign=top;spacingLeft=4;spacingRight=4;overflow=hidden;rotatable=0;points=[[0,0.5],[1,0.5]];portConstraint=eastwest;" parent="ScC2c7ncrTBsJSaWzP-6-33" vertex="1">
          <mxGeometry y="26" width="250" height="104" as="geometry" />
        </mxCell>
        <mxCell id="ScC2c7ncrTBsJSaWzP-6-35" value="" style="line;strokeWidth=1;fillColor=none;align=left;verticalAlign=middle;spacingTop=-1;spacingLeft=3;spacingRight=3;rotatable=0;labelPosition=right;points=[];portConstraint=eastwest;strokeColor=inherit;" parent="ScC2c7ncrTBsJSaWzP-6-33" vertex="1">
          <mxGeometry y="130" width="250" height="8" as="geometry" />
        </mxCell>
        <mxCell id="ScC2c7ncrTBsJSaWzP-6-36" value="+ Step(prompt: std::string, display: *Display)&#xa;+ on(): void&#xa;+ off(): void&#xa;+ isOn(): bool&#xa;" style="text;strokeColor=none;fillColor=none;align=left;verticalAlign=top;spacingLeft=4;spacingRight=4;overflow=hidden;rotatable=0;points=[[0,0.5],[1,0.5]];portConstraint=eastwest;" parent="ScC2c7ncrTBsJSaWzP-6-33" vertex="1">
          <mxGeometry y="138" width="250" height="142" as="geometry" />
        </mxCell>
        <mxCell id="ScC2c7ncrTBsJSaWzP-6-37" value="ActionType" style="swimlane;fontStyle=1;align=center;verticalAlign=top;childLayout=stackLayout;horizontal=1;startSize=26;horizontalStack=0;resizeParent=1;resizeParentMax=0;resizeLast=0;collapsible=1;marginBottom=0;" parent="1" vertex="1">
          <mxGeometry x="690" y="200" width="180" height="128" as="geometry" />
        </mxCell>
        <mxCell id="ScC2c7ncrTBsJSaWzP-6-38" value="SHOUT_ARE_YOU_OK_A,&#xa;CALL_FOR_HELP_A,&#xa;ATTACH_PADS_A,&#xa;" style="text;strokeColor=none;fillColor=none;align=left;verticalAlign=top;spacingLeft=4;spacingRight=4;overflow=hidden;rotatable=0;points=[[0,0.5],[1,0.5]];portConstraint=eastwest;" parent="ScC2c7ncrTBsJSaWzP-6-37" vertex="1">
          <mxGeometry y="26" width="180" height="94" as="geometry" />
        </mxCell>
        <mxCell id="ScC2c7ncrTBsJSaWzP-6-39" value="" style="line;strokeWidth=1;fillColor=none;align=left;verticalAlign=middle;spacingTop=-1;spacingLeft=3;spacingRight=3;rotatable=0;labelPosition=right;points=[];portConstraint=eastwest;strokeColor=inherit;" parent="ScC2c7ncrTBsJSaWzP-6-37" vertex="1">
          <mxGeometry y="120" width="180" height="8" as="geometry" />
        </mxCell>
        <mxCell id="ScC2c7ncrTBsJSaWzP-6-51" value="Beeper" style="swimlane;fontStyle=1;align=center;verticalAlign=top;childLayout=stackLayout;horizontal=1;startSize=26;horizontalStack=0;resizeParent=1;resizeParentMax=0;resizeLast=0;collapsible=1;marginBottom=0;" parent="1" vertex="1">
          <mxGeometry x="340" y="970" width="250" height="280" as="geometry" />
        </mxCell>
        <mxCell id="ScC2c7ncrTBsJSaWzP-6-52" value="- message: std::string&#xa;" style="text;strokeColor=none;fillColor=none;align=left;verticalAlign=top;spacingLeft=4;spacingRight=4;overflow=hidden;rotatable=0;points=[[0,0.5],[1,0.5]];portConstraint=eastwest;" parent="ScC2c7ncrTBsJSaWzP-6-51" vertex="1">
          <mxGeometry y="26" width="250" height="104" as="geometry" />
        </mxCell>
        <mxCell id="ScC2c7ncrTBsJSaWzP-6-53" value="" style="line;strokeWidth=1;fillColor=none;align=left;verticalAlign=middle;spacingTop=-1;spacingLeft=3;spacingRight=3;rotatable=0;labelPosition=right;points=[];portConstraint=eastwest;strokeColor=inherit;" parent="ScC2c7ncrTBsJSaWzP-6-51" vertex="1">
          <mxGeometry y="130" width="250" height="8" as="geometry" />
        </mxCell>
        <mxCell id="ScC2c7ncrTBsJSaWzP-6-54" value="+ Display()&#xa;+ ~Display()&#xa;+Â " style="text;strokeColor=none;fillColor=none;align=left;verticalAlign=top;spacingLeft=4;spacingRight=4;overflow=hidden;rotatable=0;points=[[0,0.5],[1,0.5]];portConstraint=eastwest;" parent="ScC2c7ncrTBsJSaWzP-6-51" vertex="1">
          <mxGeometry y="138" width="250" height="142" as="geometry" />
        </mxCell>
        <mxCell id="tNpldz8on0PCeAzHQv2X-5" value="MonthlyTest" style="swimlane;fontStyle=1;align=center;verticalAlign=top;childLayout=stackLayout;horizontal=1;startSize=26;horizontalStack=0;resizeParent=1;resizeParentMax=0;resizeLast=0;collapsible=1;marginBottom=0;" vertex="1" parent="1">
          <mxGeometry x="410" width="250" height="210" as="geometry" />
        </mxCell>
        <mxCell id="tNpldz8on0PCeAzHQv2X-6" value="- defibElectrodes: bool" style="text;strokeColor=none;fillColor=none;align=left;verticalAlign=top;spacingLeft=4;spacingRight=4;overflow=hidden;rotatable=0;points=[[0,0.5],[1,0.5]];portConstraint=eastwest;" vertex="1" parent="tNpldz8on0PCeAzHQv2X-5">
          <mxGeometry y="26" width="250" height="34" as="geometry" />
        </mxCell>
        <mxCell id="tNpldz8on0PCeAzHQv2X-7" value="" style="line;strokeWidth=1;fillColor=none;align=left;verticalAlign=middle;spacingTop=-1;spacingLeft=3;spacingRight=3;rotatable=0;labelPosition=right;points=[];portConstraint=eastwest;strokeColor=inherit;" vertex="1" parent="tNpldz8on0PCeAzHQv2X-5">
          <mxGeometry y="60" width="250" height="8" as="geometry" />
        </mxCell>
        <mxCell id="tNpldz8on0PCeAzHQv2X-8" value="+ checkECGSignal()&#xa;+ checkDefibrilatorCharge()&#xa;+ checkDischargeCircuitry()&#xa;+ dischargeTest()&#xa;+ checkMicroprocessor()&#xa;+ checkCPRStatus()&#xa;+ checkCompressionsDepth()" style="text;strokeColor=none;fillColor=none;align=left;verticalAlign=top;spacingLeft=4;spacingRight=4;overflow=hidden;rotatable=0;points=[[0,0.5],[1,0.5]];portConstraint=eastwest;" vertex="1" parent="tNpldz8on0PCeAzHQv2X-5">
          <mxGeometry y="68" width="250" height="142" as="geometry" />
        </mxCell>
        <mxCell id="tNpldz8on0PCeAzHQv2X-29" value="ECGSignalStatus" style="swimlane;fontStyle=1;align=center;verticalAlign=top;childLayout=stackLayout;horizontal=1;startSize=26;horizontalStack=0;resizeParent=1;resizeParentMax=0;resizeLast=0;collapsible=1;marginBottom=0;" vertex="1" parent="1">
          <mxGeometry x="800" y="10" width="210" height="128" as="geometry" />
        </mxCell>
        <mxCell id="tNpldz8on0PCeAzHQv2X-30" value="SIGNAL_ACQUIRED, NO_SIGNAL" style="text;strokeColor=none;fillColor=none;align=left;verticalAlign=top;spacingLeft=4;spacingRight=4;overflow=hidden;rotatable=0;points=[[0,0.5],[1,0.5]];portConstraint=eastwest;" vertex="1" parent="tNpldz8on0PCeAzHQv2X-29">
          <mxGeometry y="26" width="210" height="94" as="geometry" />
        </mxCell>
        <mxCell id="tNpldz8on0PCeAzHQv2X-31" value="" style="line;strokeWidth=1;fillColor=none;align=left;verticalAlign=middle;spacingTop=-1;spacingLeft=3;spacingRight=3;rotatable=0;labelPosition=right;points=[];portConstraint=eastwest;strokeColor=inherit;" vertex="1" parent="tNpldz8on0PCeAzHQv2X-29">
          <mxGeometry y="120" width="210" height="8" as="geometry" />
        </mxCell>
      </root>
    </mxGraphModel>
  </diagram>
</mxfile>
